<svg xmlns="http://www.w3.org/2000/svg" xmlns:xlink="http://www.w3.org/1999/xlink" aria-hidden="true" role="img" width="35" height="35" viewBox="0 0 32 32"><path fill="#4285F4" d="M16.003 10.667a5.334 5.334 0 1 0 0 10.666a5.334 5.334 0 0 0 0-10.666zm0 1.334a4 4 0 1 1 0 8a4 4 0 0 1 0-8zm-2.694 0H4.343a15.892 15.892 0 0 0-2.336 8a15.89 15.89 0 0 0 13.993 8a8 8 0 0 1-8.003-8c0-2.858 1.621-5.332 3.993-6.667zm2.694-1.334c2.858 0 5.332 1.621 6.667 3.993l5.336-9.993a15.88 15.88 0 0 0-12.003-5.003A8 8 0 0 1 23.338 8l-3.328 5.995c-1.065-1.4-2.8-2.661-4.66-2.661zM6.005 14.667a4 4 0 1 1 0 0zm22.66-.997a8 8 0 0 1-6.673 8.662l-3.333-5.995c.537-1.732.734-4.665-.734-7.328a15.895 15.895 0 0 0 8.74 6.002z"/></svg>
